Coordinates
version=1
nRows=26
nColumns=24
inDegrees=yes

Units are S.I. units (second, meters, Newtons, ...)
Angles are in degrees.

endheader
time	pelvis_tilt	pelvis_list	pelvis_rotation	pelvis_tx	pelvis_ty	pelvis_tz	hip_flexion_r	hip_adduction_r	hip_rotation_r	knee_angle_r	ankle_angle_r	subtalar_angle_r	mtp_angle_r	hip_flexion_l	hip_adduction_l	hip_rotation_l	knee_angle_l	ankle_angle_l	subtalar_angle_l	mtp_angle_l	lumbar_extension	lumbar_bending	lumbar_rotation
      1.36683333	      1.06142367	      5.25269538	     -1.41853845	      0.35927236	      1.02187907	      0.26954322	     11.53346736	     -4.23082014	     -0.65489836	    -63.82931182	      3.03383443	    -19.53723877	     -0.89623595	      6.13584916	      8.47123446	      1.81966542	    -11.19072929	      1.63735304	    -14.92220777	      6.76062451	     -3.28137749	     -7.14181266	      4.91968265
      1.37100000	      1.07048030	      5.14186726	     -1.26737258	      0.36441094	      1.02260992	      0.26918454	     12.01624722	     -4.10586752	     -0.79900558	    -63.34217283	      3.25233760	    -19.45916893	     -0.92891673	      5.59214192	      8.39769329	      2.11374838	    -10.79498433	      1.69086661	    -15.06496401	      6.69581399	     -3.34133068	     -7.01629544	      4.51410951
      1.37516667	      1.07455760	      5.02253547	     -1.11398960	      0.36956371	      1.02330841	      0.26885260	     12.48569199	     -3.97014203	     -0.94607038	    -62.79701265	      3.47759157	    -19.41873748	     -0.95888230	      5.06507318	      8.30339558	      2.35237088	    -10.41980086	      1.72466636	    -15.12988014	      6.63084354	     -3.38401004	     -6.88611346	      4.25603546
      1.37933333	      1.07698972	      4.91118397	     -0.96136732	      0.37469659	      1.02396627	      0.26853339	     12.94910133	     -3.84570371	     -1.09042328	    -62.21108602	      3.69192806	    -19.37716951	     -0.98868418	      4.53886234	      8.21396481	      2.59806830	    -10.03743959	      1.75784846	    -15.19220620	      6.56252856	     -3.43310639	     -6.76096353	      3.97658309
      1.38350000	      1.07226392	      4.79615807	     -0.80505850	      0.37982473	      1.02457283	      0.26821886	     13.40684311	     -3.72076952	     -1.23992991	    -61.57884474	      3.89312931	    -19.34728108	     -1.01861004	      4.02545243	      8.11548165	      2.83254898	     -9.66358343	      1.79530076	    -15.24373183	      6.49290858	     -3.47310687	     -6.63106503	      3.70568829
      1.38766667	      1.08832794	      4.68901876	     -0.65153860	      0.38494898	      1.02516573	      0.26791567	     13.82926073	     -3.60922165	     -1.39085735	    -60.90258001	      4.08545493	    -19.31537489	     -1.05087306	      3.48740778	      8.02196926	      3.06616725	     -9.28202838	      1.82980281	    -15.30205937	      6.41828383	     -3.53233708	     -6.51650599	      3.42484122
      1.39183333	      1.07228886	      4.57828381	     -0.49470287	      0.39007419	      1.02568031	      0.26761383	     14.27362947	     -3.49538402	     -1.54133823	    -60.18216027	      4.25894601	    -19.30216518	     -1.08593521	      2.98910292	      7.92044726	      3.29783909	     -8.90971049	      1.86747665	    -15.36054597	      6.34029716	     -3.55233537	     -6.39351352	      3.15151950
      1.39600000	      1.08864549	      4.47355023	     -0.34238633	      0.39518568	      1.02619374	      0.26732554	     14.67032883	     -3.39222759	     -1.69203604	    -59.42093746	      4.42556144	    -19.29280794	     -1.12118504	      2.45555133	      7.82111892	      3.51729842	     -8.53178159	      1.90654142	    -15.40238233	      6.26503231	     -3.61153984	     -6.27710069	      2.88974344
      1.40016667	      1.09410120	      4.37082325	     -0.19082591	      0.40029468	      1.02666445	      0.26705414	     15.06505027	     -3.29200704	     -1.83941472	    -58.61753286	      4.57203997	    -19.29909510	     -1.16002764	      1.93555230	      7.71946043	      3.73746316	     -8.15488649	      1.94098676	    -15.45346067	      6.18737984	     -3.65837365	     -6.16498722	      2.62004142
      1.40433333	      1.09488875	      4.27483603	     -0.04327725	      0.40540243	      1.02707023	      0.26679528	     15.45548081	     -3.20172763	     -1.98260527	    -57.78199643	      4.71139629	    -19.31265745	     -1.20244119	      1.42270566	      7.62106700	      3.94791642	     -7.78008170	      1.97806427	    -15.50075088	      6.10774221	     -3.69559241	     -6.06072622	      2.35989699
      1.40850000	      1.07167057	      4.17604918	      0.10408994	      0.41050934	      1.02740263	      0.26655213	     15.85709820	     -3.10926907	     -2.12365182	    -56.90629100	      4.85489866	    -19.32076539	     -1.22501539	      0.95629165	      7.51241280	      4.09956300	     -7.44352737	      2.01582627	    -15.47286396	      6.06737648	     -3.69713318	     -5.95143132	      2.20347561
      1.41266667	      1.09656906	      4.10139720	      0.23765070	      0.41559589	      1.02775724	      0.26632970	     16.20047933	     -3.04145277	     -2.24370217	    -56.00540958	      4.95655022	    -19.37747900	     -1.28152326	      0.40646764	      7.43295399	      4.33790862	     -7.03950794	      2.03685771	    -15.57517049	      5.97513951	     -3.77484872	     -5.88104846	      1.85890465
      1.41683333	      1.10056012	      4.01027001	      0.37317680	      0.42069429	      1.02804972	      0.26610338	     16.54792602	     -2.96362078	     -2.37871416	    -55.05773975	      5.02814603	    -19.41847474	     -1.32917002	     -0.10195824	      7.32938066	      4.52324364	     -6.67520221	      2.10359784	    -15.61134296	      5.90293526	     -3.80841258	     -5.77144385	      1.63289026
      1.42100000	      1.07546163	      3.93434137	      0.50335109	      0.42579009	      1.02823855	      0.26590697	     16.91899617	     -2.89972979	     -2.49505374	    -54.09045709	      5.13256719	    -19.43737086	     -1.35879736	     -0.56010789	      7.23691125	      4.65806185	     -6.34519437	      2.13977426	    -15.59417931	      5.85999568	     -3.80934033	     -5.68824460	      1.47395197
      1.42516667	      1.07183611	      3.84755559	      0.63063998	      0.43088677	      1.02844027	      0.26572155	     17.24662016	     -2.82420411	     -2.61103247	    -53.07281021	      5.17919963	    -19.49912741	     -1.39645614	     -1.05241696	      7.13110889	      4.82428617	     -5.99224642	      2.19340607	    -15.61513833	      5.81068762	     -3.83656360	     -5.59334780	      1.24561428
      1.42933333	      1.08224767	      3.79999543	      0.73631381	      0.43595671	      1.02856879	      0.26557009	     17.56648911	     -2.79099999	     -2.70210448	    -52.06132209	      5.21094685	    -19.57601464	     -1.45544235	     -1.57301172	      7.06783258	      5.01816121	     -5.60935958	      2.24651420	    -15.70080222	      5.73482193	     -3.88883074	     -5.54692292	      0.95516174
      1.43350000	      1.03805241	      3.73255525	      0.84855137	      0.44105254	      1.02861152	      0.26542118	     17.92062546	     -2.73883761	     -2.79665319	    -51.00040316	      5.27530872	    -19.58526739	     -1.48432195	     -2.00295625	      6.97725618	      5.12924875	     -5.29067393	      2.29075835	    -15.67336158	      5.69931922	     -3.86222382	     -5.47327774	      0.83447994
      1.43766667	      1.06323883	      3.67625618	      0.94341089	      0.44612966	      1.02869738	      0.26530113	     18.18967049	     -2.69474258	     -2.87430057	    -49.91090696	      5.24812938	    -19.68807511	     -1.54444381	     -2.53399521	      6.89874618	      5.30256451	     -4.91951893	      2.36055295	    -15.74641685	      5.62796955	     -3.93087412	     -5.41804262	      0.56504421
      1.44183333	      1.01943501	      3.61390782	      1.04094076	      0.45122838	      1.02865209	      0.26517789	     18.51710532	     -2.64915686	     -2.95179454	    -48.79048360	      5.27665762	    -19.68639737	     -1.57749690	     -2.96044561	      6.81147478	      5.40416021	     -4.60891276	      2.40907876	    -15.73389712	      5.58847646	     -3.90261853	     -5.34782335	      0.43975353
      1.44600000	      0.97874647	      3.56266791	      1.12828990	      0.45632525	      1.02855472	      0.26508070	     18.83259028	     -2.61334403	     -3.01559013	    -47.65088434	      5.25727048	    -19.72371842	     -1.61348806	     -3.39677441	      6.73504348	      5.52128917	     -4.28624990	      2.48052467	    -15.74461618	      5.54787197	     -3.88313463	     -5.29150465	      0.27569185
      1.45016667	      0.95913003	      3.51521510	      1.20431758	      0.46142288	      1.02844645	      0.26500243	     19.11105794	     -2.58019504	     -3.06778697	    -46.48156022	      5.21961213	    -19.75417572	     -1.65156105	     -3.85620307	      6.66164561	      5.63179653	     -3.96358871	      2.55433604	    -15.76453926	      5.50453914	     -3.88584115	     -5.24195353	      0.10277107
      1.45433333	      0.92556490	      3.48052152	      1.27099985	      0.46651761	      1.02826863	      0.26494744	     19.39748505	     -2.56099331	     -3.11059437	    -45.29866475	      5.17641726	    -19.76412083	     -1.68619780	     -4.29783258	      6.60157893	      5.73377367	     -3.64667470	      2.63166186	    -15.77940526	      5.46441119	     -3.87408870	     -5.20808990	     -0.04935925
      1.45850000	      0.93231411	      3.44745521	      1.32739293	      0.47159890	      1.02809825	      0.26492044	     19.62646618	     -2.53828864	     -3.13967892	    -44.08690467	      5.08472743	    -19.82775923	     -1.74590438	     -4.79504971	      6.54161167	      5.87302845	     -3.30622073	      2.71722605	    -15.85358072	      5.39027341	     -3.92388868	     -5.18640340	     -0.26735363
      1.46266667	      0.88705888	      3.41518461	      1.38408416	      0.47670906	      1.02782189	      0.26488625	     19.89605773	     -2.52224887	     -3.17205650	    -42.85108959	      5.01170040	    -19.81645523	     -1.80566378	     -5.22113114	      6.48338801	      5.97844370	     -2.99798298	      2.79420999	    -15.89855106	      5.30871073	     -3.89472655	     -5.15288655	     -0.41661946
      1.46683333	      0.81208624	      3.38920844	      1.43011968	      0.48182609	      1.02744006	      0.26486804	     20.19141531	     -2.51408057	     -3.19647656	    -41.60694249	      4.95893336	    -19.72981753	     -1.83206905	     -5.59776728	      6.43280394	      6.02833459	     -2.72692715	      2.88752748	    -15.88010883	      5.27150603	     -3.82550187	     -5.12077034	     -0.49146354
      1.47100000	      0.76119759	      3.36132294	      1.47361129	      0.48693857	      1.02706804	      0.26486570	     20.44031041	     -2.50126377	     -3.21686788	    -40.32476638	      4.85938178	    -19.67693704	     -1.85907376	     -6.00268912	      6.37868700	      6.09603577	     -2.45217971	      2.99580508	    -15.87645392	      5.23211403	     -3.78753280	     -5.08911162	     -0.59862169
